<svg width="64" height="64" viewBox="0 0 64 64" fill="none" xmlns="http://www.w3.org/2000/svg">
  <!-- Background Circle -->
  <circle cx="32" cy="32" r="32" fill="#10b981"/>
  
  <!-- Leaf/Tech Symbol - Main -->
  <path 
    d="M32 12C32 12 20 18 20 30C20 36 23 42 32 48C41 42 44 36 44 30C44 18 32 12 32 12Z" 
    fill="#ffffff"
    stroke="#ffffff"
    stroke-width="2"
    stroke-linecap="round"
    stroke-linejoin="round"
  />
  
  <!-- Inner Leaf -->
  <path 
    d="M32 22C32 22 26 25 26 32C26 35 27.5 38 32 42C36.5 38 38 35 38 32C38 25 32 22 32 22Z" 
    fill="#059669"
    stroke="#059669"
    stroke-width="1.5"
    stroke-linecap="round"
    stroke-linejoin="round"
  />
  
  <!-- Tech Elements -->
  <circle cx="32" cy="32" r="3" fill="#ffffff"/>
  <line x1="32" y1="48" x2="32" y2="56" stroke="#ffffff" stroke-width="3" stroke-linecap="round"/>
  <line x1="20" y1="42" x2="14" y2="48" stroke="#ffffff" stroke-width="3" stroke-linecap="round"/>
  <line x1="44" y1="42" x2="50" y2="48" stroke="#ffffff" stroke-width="3" stroke-linecap="round"/>
</svg>
